<svg width="600" height="400" viewBox="0 0 600 400" fill="none" xmlns="http://www.w3.org/2000/svg">
  <!-- AI Brain Illustration -->
  <defs>
    <linearGradient id="grad1" x1="0%" y1="0%" x2="100%" y2="100%">
      <stop offset="0%" style="stop-color:#06B6D4;stop-opacity:1" />
      <stop offset="100%" style="stop-color:#8B5CF6;stop-opacity:1" />
    </linearGradient>
  </defs>
  
  <!-- Brain outline -->
  <path d="M300 100 Q250 80 220 120 Q200 150 210 190 Q220 230 250 260 Q280 290 320 280 Q360 270 380 240 Q400 210 390 170 Q380 130 350 110 Q320 90 300 100 Z" 
        fill="url(#grad1)" opacity="0.2"/>
  
  <!-- Neural connections -->
  <circle cx="250" cy="150" r="8" fill="#06B6D4" opacity="0.8"/>
  <circle cx="300" cy="180" r="8" fill="#8B5CF6" opacity="0.8"/>
  <circle cx="350" cy="160" r="8" fill="#06B6D4" opacity="0.8"/>
  <circle cx="280" cy="220" r="8" fill="#8B5CF6" opacity="0.8"/>
  <circle cx="330" cy="240" r="8" fill="#06B6D4" opacity="0.8"/>
  
  <line x1="250" y1="150" x2="300" y2="180" stroke="#06B6D4" stroke-width="2" opacity="0.6"/>
  <line x1="300" y1="180" x2="350" y2="160" stroke="#8B5CF6" stroke-width="2" opacity="0.6"/>
  <line x1="300" y1="180" x2="280" y2="220" stroke="#06B6D4" stroke-width="2" opacity="0.6"/>
  <line x1="280" y1="220" x2="330" y2="240" stroke="#8B5CF6" stroke-width="2" opacity="0.6"/>
  
  <!-- Code brackets -->
  <text x="150" y="320" font-family="monospace" font-size="48" fill="#06B6D4" opacity="0.3">&lt;/&gt;</text>
  <text x="400" y="320" font-family="monospace" font-size="48" fill="#8B5CF6" opacity="0.3">{}</text>
</svg>
